<svg width="9" height="16" viewBox="0 0 9 16" fill="none" xmlns="http://www.w3.org/2000/svg">
<path d="M4.5 14C4.22 14 4 13.78 4 13.5V4.5C4 4.22 4.22 4 4.5 4C4.78 4 5 4.22 5 4.5V13.5C5 13.78 4.78 14 4.5 14Z" fill="white"/>
<path d="M7.99999 7.50023C7.93441 7.50103 7.8694 7.4881 7.80912 7.46227C7.74884 7.43643 7.69464 7.39827 7.64999 7.35023L4.49999 4.20023L1.34999 7.35023C1.14999 7.55023 0.83999 7.55023 0.63999 7.35023C0.43999 7.15023 0.43999 6.84023 0.63999 6.64023L4.13999 3.14023C4.33999 2.94023 4.64999 2.94023 4.84999 3.14023L8.34999 6.64023C8.54999 6.84023 8.54999 7.15023 8.34999 7.35023C8.24999 7.45023 8.11999 7.50023 7.99999 7.50023Z" fill="white"/>
</svg>
