<svg width="16" height="16" viewBox="0 0 16 16" fill="none" xmlns="http://www.w3.org/2000/svg">
<path d="M2.85001 2.15012C2.75571 2.05904 2.62941 2.00865 2.49831 2.00978C2.36721 2.01092 2.24181 2.06351 2.1491 2.15621C2.0564 2.24892 2.00381 2.37432 2.00267 2.50542C2.00153 2.63652 2.05193 2.76282 2.14301 2.85712L13.143 13.8571C13.2373 13.9482 13.3636 13.9986 13.4947 13.9975C13.6258 13.9963 13.7512 13.9437 13.8439 13.851C13.9366 13.7583 13.9892 13.6329 13.9903 13.5018C13.9915 13.3707 13.9411 13.2444 13.85 13.1501L2.85001 2.15012ZM15 8.88012C14.566 9.47412 14.115 10.0001 13.65 10.4701L12.943 9.76312C13.3723 9.33379 13.789 8.84379 14.193 8.29312C14.2463 8.22014 14.2788 8.13409 14.2871 8.04411C14.2953 7.95413 14.2791 7.8636 14.24 7.78212L14.195 7.70712C12.445 5.30712 10.475 4.08712 8.26501 4.00712L8.00901 4.00212C7.74591 4.00085 7.48301 4.01688 7.22201 4.05012L6.36001 3.18812C6.90111 3.06323 7.45469 3.00049 8.01001 3.00112C10.67 3.00112 13.01 4.39112 15 7.12112C15.1877 7.37802 15.2889 7.68795 15.2889 8.00612C15.2889 8.32429 15.1877 8.63423 15 8.89112V8.88012Z" fill="white"/>
<path d="M11 7.83C10.9578 7.0932 10.6461 6.39766 10.1242 5.8758C9.60236 5.35395 8.90682 5.04223 8.17001 5L11 7.83ZM1.22001 6.83C1.58735 6.35 1.96735 5.91667 2.36001 5.53L3.06701 6.237C2.63768 6.66633 2.22101 7.15633 1.81701 7.707L1.77001 7.786C1.73772 7.85343 1.72095 7.92724 1.72095 8.002C1.72095 8.07676 1.73772 8.15057 1.77001 8.218L1.81401 8.292C3.56401 10.692 5.53401 11.912 7.74401 11.992L8.00001 11.997C8.26601 11.997 8.52835 11.981 8.78701 11.949L9.64801 12.809C9.10695 12.9342 8.55337 12.9973 7.99801 12.997C5.33801 12.997 2.99801 11.607 1.00801 8.877L0.926013 8.752C0.777719 8.4997 0.706468 8.20953 0.721038 7.91724C0.735608 7.62495 0.835363 7.3433 1.00801 7.107L1.22301 6.82L1.22001 6.83Z" fill="white"/>
<path d="M7.83 10.9999C7.0932 10.9577 6.39766 10.646 5.8758 10.1241C5.35395 9.60227 5.04223 8.90672 5 8.16992L7.83 10.9999Z" fill="white"/>
</svg>
