<svg width="19" height="19" viewBox="0 0 19 19" fill="none" xmlns="http://www.w3.org/2000/svg">
<path opacity="0.5" d="M1.58334 9.49935C1.58334 10.7977 1.9198 11.2339 2.59272 12.1087C3.93618 13.8535 6.18926 15.8327 9.50001 15.8327C12.8108 15.8327 15.0638 13.8535 16.4073 12.1087C17.0802 11.2347 17.4167 10.7969 17.4167 9.49935C17.4167 8.20102 17.0802 7.76481 16.4073 6.89002C15.0638 5.14518 12.8108 3.16602 9.50001 3.16602C6.18926 3.16602 3.93618 5.14518 2.59272 6.89002C1.9198 7.7656 1.58334 8.20181 1.58334 9.49935Z" fill="white"/>
<path fill-rule="evenodd" clip-rule="evenodd" d="M6.53125 9.5C6.53125 8.71264 6.84403 7.95753 7.40078 7.40078C7.95753 6.84403 8.71264 6.53125 9.5 6.53125C10.2874 6.53125 11.0425 6.84403 11.5992 7.40078C12.156 7.95753 12.4688 8.71264 12.4688 9.5C12.4688 10.2874 12.156 11.0425 11.5992 11.5992C11.0425 12.156 10.2874 12.4688 9.5 12.4688C8.71264 12.4688 7.95753 12.156 7.40078 11.5992C6.84403 11.0425 6.53125 10.2874 6.53125 9.5ZM7.71875 9.5C7.71875 9.02758 7.90642 8.57452 8.24047 8.24047C8.57452 7.90642 9.02758 7.71875 9.5 7.71875C9.97242 7.71875 10.4255 7.90642 10.7595 8.24047C11.0936 8.57452 11.2813 9.02758 11.2813 9.5C11.2813 9.97242 11.0936 10.4255 10.7595 10.7595C10.4255 11.0936 9.97242 11.2813 9.5 11.2813C9.02758 11.2813 8.57452 11.0936 8.24047 10.7595C7.90642 10.4255 7.71875 9.97242 7.71875 9.5Z" fill="white"/>
</svg>
