<svg width="31" height="25" viewBox="0 0 31 25" fill="none" xmlns="http://www.w3.org/2000/svg">
<path d="M23.375 19.25H20.625C20.2354 19.25 19.9091 19.118 19.646 18.854C19.3829 18.59 19.2509 18.2637 19.25 17.875C19.2491 17.4863 19.3811 17.16 19.646 16.896C19.9109 16.632 20.2373 16.5 20.625 16.5H23.375V13.75C23.375 13.3604 23.507 13.0341 23.771 12.771C24.035 12.5079 24.3613 12.3759 24.75 12.375C25.1387 12.3741 25.4655 12.5061 25.7304 12.771C25.9953 13.0359 26.1268 13.3623 26.125 13.75V16.5H28.875C29.2646 16.5 29.5914 16.632 29.8554 16.896C30.1194 17.16 30.2509 17.4863 30.25 17.875C30.2491 18.2637 30.1171 18.5905 29.854 18.8554C29.5909 19.1203 29.2646 19.2518 28.875 19.25H26.125V22C26.125 22.3896 25.993 22.7164 25.729 22.9804C25.465 23.2444 25.1387 23.3759 24.75 23.375C24.3613 23.3741 24.035 23.2421 23.771 22.979C23.507 22.7159 23.375 22.3896 23.375 22V19.25ZM2.75 24.75C1.99375 24.75 1.34658 24.481 0.8085 23.9429C0.270417 23.4048 0.000916667 22.7572 0 22V2.75C0 1.99375 0.2695 1.34658 0.8085 0.8085C1.3475 0.270417 1.99467 0.000916667 2.75 0H22C22.7563 0 23.4039 0.2695 23.9429 0.8085C24.4819 1.3475 24.7509 1.99467 24.75 2.75V8.25C24.75 8.63958 24.618 8.96638 24.354 9.23038C24.09 9.49438 23.7637 9.62592 23.375 9.625C22.9863 9.62408 22.66 9.49208 22.396 9.229C22.132 8.96592 22 8.63958 22 8.25V6.875H2.75V22H19.25C19.6396 22 19.9664 22.132 20.2304 22.396C20.4944 22.66 20.6259 22.9863 20.625 23.375C20.6241 23.7637 20.4921 24.0905 20.229 24.3554C19.9659 24.6203 19.6396 24.7518 19.25 24.75H2.75Z" fill="white"/>
</svg>
