<svg width="33" height="33" viewBox="0 0 33 33" fill="none" xmlns="http://www.w3.org/2000/svg">
<path d="M24.75 23.375H22C21.6104 23.375 21.2841 23.243 21.021 22.979C20.7579 22.715 20.6259 22.3887 20.625 22C20.6241 21.6113 20.7561 21.285 21.021 21.021C21.2859 20.757 21.6123 20.625 22 20.625H24.75V17.875C24.75 17.4854 24.882 17.1591 25.146 16.896C25.41 16.6329 25.7363 16.5009 26.125 16.5C26.5137 16.4991 26.8405 16.6311 27.1054 16.896C27.3703 17.1609 27.5018 17.4873 27.5 17.875V20.625H30.25C30.6396 20.625 30.9664 20.757 31.2304 21.021C31.4944 21.285 31.6259 21.6113 31.625 22C31.6241 22.3887 31.4921 22.7155 31.229 22.9804C30.9659 23.2453 30.6396 23.3768 30.25 23.375H27.5V26.125C27.5 26.5146 27.368 26.8414 27.104 27.1054C26.84 27.3694 26.5137 27.5009 26.125 27.5C25.7363 27.4991 25.41 27.3671 25.146 27.104C24.882 26.8409 24.75 26.5146 24.75 26.125V23.375ZM4.125 28.875C3.36875 28.875 2.72158 28.606 2.1835 28.0679C1.64542 27.5298 1.37592 26.8822 1.375 26.125V6.875C1.375 6.11875 1.6445 5.47158 2.1835 4.9335C2.7225 4.39542 3.36967 4.12592 4.125 4.125H23.375C24.1313 4.125 24.7789 4.3945 25.3179 4.9335C25.8569 5.4725 26.1259 6.11967 26.125 6.875V12.375C26.125 12.7646 25.993 13.0914 25.729 13.3554C25.465 13.6194 25.1387 13.7509 24.75 13.75C24.3613 13.7491 24.035 13.6171 23.771 13.354C23.507 13.0909 23.375 12.7646 23.375 12.375V11H4.125V26.125H20.625C21.0146 26.125 21.3414 26.257 21.6054 26.521C21.8694 26.785 22.0009 27.1113 22 27.5C21.9991 27.8887 21.8671 28.2155 21.604 28.4804C21.3409 28.7453 21.0146 28.8768 20.625 28.875H4.125Z" fill="url(#paint0_linear_2397_135)"/>
<defs>
<linearGradient id="paint0_linear_2397_135" x1="1.375" y1="16.5" x2="31.625" y2="16.5" gradientUnits="userSpaceOnUse">
<stop stop-color="#9801FF"/>
<stop offset="1" stop-color="#C90EFF"/>
</linearGradient>
</defs>
</svg>
