<svg width="30" height="30" viewBox="0 0 30 30" fill="none" xmlns="http://www.w3.org/2000/svg">
<path d="M4.99995 22.5003C4.8349 22.5041 4.67084 22.4741 4.5178 22.4122C4.36476 22.3502 4.22597 22.2577 4.10995 22.1403C3.99251 22.0243 3.90001 21.8855 3.83811 21.7325C3.7762 21.5794 3.7462 21.4154 3.74995 21.2503C3.74995 20.897 3.86995 20.6003 4.10995 20.3603C4.22597 20.2429 4.36476 20.1504 4.5178 20.0885C4.67084 20.0266 4.8349 19.9966 4.99995 20.0003H18.7499C19.1041 20.0003 19.4012 20.1203 19.6412 20.3603C19.7584 20.4764 19.8507 20.6153 19.9124 20.7683C19.974 20.9213 20.0038 21.0854 19.9999 21.2503C19.9999 21.6036 19.8804 21.9003 19.6412 22.1403C19.525 22.2579 19.386 22.3505 19.2328 22.4124C19.0795 22.4743 18.9152 22.5042 18.7499 22.5003H4.99995Z" fill="white"/>
<path d="M21.75 15.0006L25.375 18.6256C25.4888 18.7404 25.578 18.8772 25.6372 19.0277C25.6963 19.1781 25.724 19.3391 25.7188 19.5006C25.724 19.6622 25.6963 19.8231 25.6372 19.9736C25.578 20.1241 25.4888 20.2609 25.375 20.3756C25.2602 20.4895 25.1234 20.5787 24.973 20.6378C24.8225 20.6969 24.6616 20.7247 24.5 20.7194C24.3384 20.7247 24.1775 20.6969 24.027 20.6378C23.8766 20.5787 23.7398 20.4895 23.625 20.3756L19.125 15.8756C19.0061 15.7631 18.9115 15.6274 18.847 15.4769C18.7825 15.3264 18.7495 15.1643 18.75 15.0006C18.75 14.6673 18.875 14.3756 19.125 14.1256L23.625 9.62563C23.7398 9.5118 23.8766 9.42259 24.027 9.36348C24.1775 9.30437 24.3384 9.27661 24.5 9.28188C24.8542 9.28188 25.1458 9.39647 25.375 9.62563C25.4888 9.7404 25.578 9.87721 25.6372 10.0277C25.6963 10.1781 25.724 10.3391 25.7188 10.5006C25.724 10.6622 25.6963 10.8231 25.6372 10.9736C25.578 11.1241 25.4888 11.2609 25.375 11.3756L21.75 15.0006Z" fill="white"/>
<path d="M4.99997 10.0004C4.83502 10.0043 4.67101 9.97447 4.51797 9.91278C4.36494 9.8511 4.22611 9.75883 4.10997 9.64162C3.99239 9.52545 3.89979 9.38646 3.83788 9.23319C3.77598 9.07993 3.74606 8.91562 3.74997 8.75037C3.74997 8.3962 3.86997 8.09912 4.10997 7.85912C4.22611 7.74191 4.36494 7.64964 4.51797 7.58795C4.67101 7.52627 4.83502 7.49646 4.99997 7.50037H18.75C18.9151 7.49629 19.0794 7.52601 19.2326 7.5877C19.3859 7.64939 19.5249 7.74176 19.6412 7.85912C19.7586 7.9754 19.8509 8.11443 19.9126 8.2677C19.9743 8.42096 20.004 8.58521 20 8.75037C20.004 8.91553 19.9743 9.07978 19.9126 9.23304C19.8509 9.3863 19.7586 9.52534 19.6412 9.64162C19.5249 9.75898 19.3859 9.85134 19.2326 9.91303C19.0794 9.97473 18.9151 10.0044 18.75 10.0004H4.99997Z" fill="white"/>
<path d="M4.99995 16.2504C4.8349 16.2541 4.67084 16.2241 4.5178 16.1622C4.36476 16.1003 4.22597 16.0078 4.10995 15.8904C3.99251 15.7743 3.90001 15.6356 3.83811 15.4825C3.7762 15.3295 3.7462 15.1654 3.74995 15.0004C3.74995 14.6462 3.86995 14.3491 4.10995 14.1091C4.22608 13.9919 4.36491 13.8996 4.51795 13.838C4.67098 13.7763 4.83499 13.7465 4.99995 13.7504H14.9999C15.1651 13.7463 15.3294 13.776 15.4826 13.8377C15.6359 13.8994 15.7749 13.9918 15.8912 14.1091C16.0086 14.2254 16.1009 14.3644 16.1626 14.5177C16.2243 14.671 16.254 14.8352 16.2499 15.0004C16.2499 15.3537 16.1304 15.6504 15.8912 15.8904C15.775 16.008 15.636 16.1005 15.4828 16.1625C15.3295 16.2244 15.1652 16.2543 14.9999 16.2504H4.99995Z" fill="white"/>
</svg>
